<svg xmlns="http://www.w3.org/2000/svg" viewBox="0 0 48 48">
  <defs>
    <linearGradient id="sky" x1="0%" y1="0%" x2="0%" y2="100%">
      <stop offset="0%" style="stop-color:#87CEEB"/>
      <stop offset="100%" style="stop-color:#E0F7FA"/>
    </linearGradient>
    <linearGradient id="sun" x1="0%" y1="0%" x2="100%" y2="100%">
      <stop offset="0%" style="stop-color:#FFD700"/>
      <stop offset="100%" style="stop-color:#FFA500"/>
    </linearGradient>
  </defs>
  <rect width="48" height="48" rx="8" fill="url(#sky)"/>
  <circle cx="36" cy="12" r="6" fill="url(#sun)"/>
  <path d="M6 38 L6 28 L14 20 L22 28 L22 38 Z" fill="#126685"/>
  <path d="M14 20 L14 12 L22 20 Z" fill="#126685"/>
  <path d="M24 38 L24 26 L34 16 L44 26 L44 38 Z" fill="#71b5d8"/>
  <path d="M24 26 L24 16 L34 26 Z" fill="#71b5d8"/>
  <path d="M2 38 Q12 32 24 38 Q36 44 48 38 L48 48 L2 48 Z" fill="#126685" opacity="0.7"/>
</svg>